# xmcd
#
# Track frame offsets:
#	150
#	9836
#	19817
#	31703
#	46320
#	55207
#	80137
#	89595
#	103716
#	117032
#	128729
#	138242
#	148855
#	166986
#	177659
#	187351
#	197769
#	207478
#	217255
#	225185
#	234737
#	245426
#
# Disc length: 3427 seconds
#
# Revision: 0
# Processed by: cddbd v1.5.1PL0 Copyright (c) Steve Scherf et al.
# Submitted via: audiograbber 1.83.01
#
DISCID=3e0d6116
DTITLE=Various Artist - Yesterday and Today
DYEAR=1980
DGENRE=Soul
TTITLE0=Lionel Richie - Bernadette
TTITLE1=Originals - Please Mr. Postman
TTITLE2=Sterling Harrison - Reflections
TTITLE3=High Inergy - I Hear A Symphony 
TTITLE4=Virginia McDonald  - Baby I Need Your Loving
TTITLE5=Edward Holland - Reach Out I'll Be There 
TTITLE6=Sterling Harrison and Eloise Laws - Forever Came Today
TTITLE7=Eloise Laws - You Keep Me Hanging On
TTITLE8=Sterling Harrison - Nowhere To Run
TTITLE9=Sterling Harrison - Standing In the Shadows Of Love
TTITLE10=High Inergy - I'm Ready For Love
TTITLE11=Deborah Holland - Just A Little Bit Of You
TTITLE12=Edward Holland - Only You Can Love Me Like You Love Me
TTITLE13=Wali Ali - We're Almost There
TTITLE14=Edward Holland - I Can't Go On Living Without Your Love
TTITLE15=Tyrone Barclay - Your What's Missing In My Life
TTITLE16=Edward Holland - Your My Driving Wheel
TTITLE17=High Inergy - I'm Gonna Let My Heart Do The Walking
TTITLE18=Sterling Harrison - Get The Cream Off The Top
TTITLE19=Edward Holland - You Gave Me Something To Believe In
TTITLE20=Sterling Harrison - Take A Trip To My Tomorrow (Let's Encounter For Th
TTITLE20=e First Time) 
TTITLE21=Edward Holland - Let Yourself Go
EXTD=
EXTT0=
EXTT1=
EXTT2=
EXTT3=
EXTT4=
EXTT5=
EXTT6=
EXTT7=
EXTT8=
EXTT9=
EXTT10=
EXTT11=
EXTT12=
EXTT13=
EXTT14=
EXTT15=
EXTT16=
EXTT17=
EXTT18=
EXTT19=
EXTT20=
EXTT21=
PLAYORDER=
